<svg width="800" height="275" viewBox="0 0 800 275" fill="none" xmlns="http://www.w3.org/2000/svg">
<path d="M0 0H800V275H0V0Z" fill="#FFFDFC"/>
<path fill-rule="evenodd" clip-rule="evenodd" d="M427.627 123.844C421.029 123.844 414.787 122.32 409.234 119.604C417.848 110.362 423.273 96.9046 423.273 81.922C423.273 66.9394 417.848 53.4819 409.234 44.2402C414.787 41.5244 421.029 40 427.627 40C450.78 40 469.549 58.7691 469.549 81.922C469.549 105.075 450.78 123.844 427.627 123.844ZM413.844 81.922C413.844 88.5203 412.32 94.7626 409.604 100.316C400.362 91.7013 386.905 86.2764 371.922 86.2764C356.939 86.2764 343.482 91.7014 334.24 100.316C331.524 94.7626 330 88.5203 330 81.922C330 58.7691 348.769 40 371.922 40C395.075 40 413.844 58.7691 413.844 81.922ZM389.946 118.684C387.23 124.237 385.705 130.48 385.705 137.078C385.705 160.231 404.475 179 427.627 179C450.78 179 469.549 160.231 469.549 137.078C469.549 130.48 468.025 124.237 465.309 118.684C456.067 127.299 442.61 132.724 427.627 132.724C412.645 132.724 399.187 127.299 389.946 118.684ZM371.922 95.156C378.52 95.156 384.763 96.6805 390.316 99.3963C381.701 108.638 376.276 122.095 376.276 137.078C376.276 152.061 381.701 165.518 390.316 174.76C384.763 177.476 378.52 179 371.922 179C348.769 179 330 160.231 330 137.078C330 113.925 348.769 95.156 371.922 95.156Z" fill="#617B5B"/>
<path d="M303.9 230V224.35L318.25 208H304.35V202.5H325.55V208.15L311.05 224.5H326.1V230H303.9ZM349.03 230.5C346.697 230.5 344.664 230.05 342.93 229.15C341.197 228.25 339.847 227 338.88 225.4C337.947 223.767 337.48 221.867 337.48 219.7V212.8C337.48 210.633 337.947 208.75 338.88 207.15C339.847 205.517 341.197 204.25 342.93 203.35C344.664 202.45 346.697 202 349.03 202C351.33 202 353.33 202.45 355.03 203.35C356.764 204.25 358.097 205.517 359.03 207.15C359.997 208.75 360.48 210.633 360.48 212.8V217.75H343.53V219.7C343.53 221.633 343.997 223.1 344.93 224.1C345.864 225.067 347.247 225.55 349.08 225.55C350.48 225.55 351.614 225.317 352.48 224.85C353.347 224.35 353.897 223.633 354.13 222.7H360.28C359.814 225.067 358.547 226.967 356.48 228.4C354.447 229.8 351.964 230.5 349.03 230.5ZM354.43 214.25V212.75C354.43 210.85 353.98 209.4 353.08 208.4C352.18 207.367 350.83 206.85 349.03 206.85C347.23 206.85 345.864 207.367 344.93 208.4C343.997 209.433 343.53 210.9 343.53 212.8V213.85L354.88 213.75L354.43 214.25ZM371.811 230V202.5H377.911V207.75H379.611L377.911 209.2C377.911 206.933 378.561 205.167 379.861 203.9C381.194 202.633 383.011 202 385.311 202C388.011 202 390.161 202.9 391.761 204.7C393.394 206.5 394.211 208.917 394.211 211.95V230H387.961V212.6C387.961 210.933 387.528 209.65 386.661 208.75C385.794 207.85 384.578 207.4 383.011 207.4C381.478 207.4 380.261 207.867 379.361 208.8C378.494 209.733 378.061 211.067 378.061 212.8V230H371.811ZM405.741 230V224.3H415.341V208.15H406.991V202.5H421.341V224.3H429.841V230H405.741ZM417.841 197.9C416.575 197.9 415.575 197.583 414.841 196.95C414.108 196.283 413.741 195.4 413.741 194.3C413.741 193.2 414.108 192.333 414.841 191.7C415.575 191.033 416.575 190.7 417.841 190.7C419.108 190.7 420.108 191.033 420.841 191.7C421.575 192.333 421.941 193.2 421.941 194.3C421.941 195.4 421.575 196.283 420.841 196.95C420.108 197.583 419.108 197.9 417.841 197.9ZM446.172 230V211.2H438.622V205.55H446.172V201.4C446.172 199 446.972 197.083 448.572 195.65C450.172 194.217 452.289 193.5 454.922 193.5H462.972V199H455.072C454.272 199 453.622 199.233 453.122 199.7C452.655 200.133 452.422 200.733 452.422 201.5V205.55H462.972V211.2H452.422V230H446.172ZM478.202 239L482.052 228.5L471.802 202.5H478.652L483.752 216.55C484.019 217.317 484.286 218.25 484.552 219.35C484.819 220.417 485.019 221.3 485.152 222C485.319 221.3 485.536 220.417 485.802 219.35C486.069 218.25 486.336 217.317 486.602 216.55L491.402 202.5H498.002L484.752 239H478.202Z" fill="#617B5B"/>
</svg>
